<?xml version="1.0" standalone="no"?>
<!DOCTYPE svg PUBLIC "-//W3C//DTD SVG 20010904//EN"
 "http://www.w3.org/TR/2001/REC-SVG-20010904/DTD/svg10.dtd">
<svg version="1.0" xmlns="http://www.w3.org/2000/svg"
 width="1200.000000pt" height="1200.000000pt" viewBox="0 0 1200.000000 1200.000000"
 preserveAspectRatio="xMidYMid meet">

<g transform="translate(0.000000,1200.000000) scale(0.100000,-0.100000)"
fill="#000000" stroke="none">
<path d="M9110 9683 c-337 -26 -689 -113 -1565 -384 -723 -224 -1146 -330
-1545 -385 -157 -21 -547 -30 -680 -15 -134 15 -313 55 -415 92 l-79 29 39
-41 c22 -23 72 -67 110 -99 324 -267 736 -400 1234 -400 328 0 629 45 1286
190 355 78 578 123 715 141 140 19 408 17 492 -4 216 -54 347 -186 421 -422
132 -423 87 -1250 -129 -2366 -20 -104 -34 -193 -30 -196 12 -12 433 119 768
239 l168 60 9 37 c62 232 188 807 230 1041 24 135 94 624 113 790 7 68 13 229
12 395 0 246 -2 295 -22 407 -45 253 -117 436 -227 576 -185 237 -500 347
-905 315z"/>
<path d="M1667 7869 c-51 -58 -123 -192 -160 -294 -161 -452 -113 -1096 107
-1434 45 -70 86 -113 73 -77 -20 52 -58 203 -76 296 -38 206 -46 307 -45 610
0 253 4 316 23 440 27 176 60 317 99 428 16 45 28 82 26 82 -1 0 -22 -23 -47
-51z"/>
<path d="M10204 7125 c72 -191 126 -548 126 -838 l0 -154 -202 -81 c-846 -339
-1648 -549 -2488 -652 -576 -70 -1307 -80 -1875 -24 -943 91 -1925 351 -2700
712 -375 175 -863 435 -1085 579 -180 116 -8 -10 280 -206 523 -356 1187 -708
1800 -956 798 -323 1564 -503 2360 -556 254 -17 823 -6 1060 20 986 107 1866
400 2694 897 77 46 142 82 144 79 8 -8 -27 -254 -54 -375 -23 -101 -55 -212
-79 -275 -16 -40 56 38 100 110 50 80 93 181 128 305 28 95 57 255 57 310 0
34 5 39 97 105 116 82 346 266 340 271 -2 2 -78 -31 -168 -75 -90 -43 -185
-88 -210 -99 l-46 -20 -6 127 c-14 276 -89 549 -196 713 -50 77 -92 122 -77
83z"/>
<path d="M9635 5409 c-197 -95 -528 -226 -740 -294 l-99 -32 -117 -464 c-152
-604 -321 -1223 -446 -1634 -121 -398 -236 -629 -355 -715 -34 -25 -51 -30
-98 -30 -49 0 -64 5 -110 38 -106 73 -196 206 -420 622 -230 425 -330 588
-463 747 -258 310 -521 389 -807 243 -107 -55 -107 -57 16 -62 85 -4 124 -11
177 -31 237 -92 447 -328 650 -733 128 -256 221 -498 347 -904 89 -288 118
-360 195 -476 68 -102 155 -183 242 -226 62 -30 75 -33 163 -33 88 0 101 3
163 33 87 43 223 172 325 308 415 553 922 1806 1402 3469 33 115 59 209 57
210 -1 1 -38 -15 -82 -36z"/>
</g>
</svg>
